<?xml version="1.0" encoding="UTF-8"?>
<svg width="500px" height="500px" viewBox="0 0 500 500" version="1.1" xmlns="http://www.w3.org/2000/svg" xmlns:xlink="http://www.w3.org/1999/xlink">
    <title>Logo/Square/Default</title>
    <defs>
        <linearGradient x1="33.6106523%" y1="107.159662%" x2="88.4278612%" y2="-3.15178465%" id="linearGradient-1">
            <stop stop-color="#5000C8" offset="0%"></stop>
            <stop stop-color="#FC2F00" offset="99.9754152%"></stop>
        </linearGradient>
        <filter x="-16.5%" y="-10.8%" width="133.1%" height="121.6%" filterUnits="objectBoundingBox" id="filter-2">
            <feOffset dx="0" dy="0" in="SourceAlpha" result="shadowOffsetOuter1"></feOffset>
            <feGaussianBlur stdDeviation="16" in="shadowOffsetOuter1" result="shadowBlurOuter1"></feGaussianBlur>
            <feColorMatrix values="0 0 0 0 0.117647059   0 0 0 0 0.117647059   0 0 0 0 0.141176471  0 0 0 0.569875437 0" type="matrix" in="shadowBlurOuter1" result="shadowMatrixOuter1"></feColorMatrix>
            <feMerge>
                <feMergeNode in="shadowMatrixOuter1"></feMergeNode>
                <feMergeNode in="SourceGraphic"></feMergeNode>
            </feMerge>
        </filter>
    </defs>
    <g id="Logo/Square/Default" stroke="none" stroke-width="1" fill="none" fill-rule="evenodd">
        <rect id="Rectangle" fill="url(#linearGradient-1)" x="0" y="0" width="500" height="500"></rect>
        <g id="logo/dark/image-only" filter="url(#filter-2)" transform="translate(105, 29)" fill="#F5F5F5">
            <g id="Lava" transform="translate(184.776, 114.144) rotate(28) translate(-184.776, -114.144)translate(113.2684, 23.8364)">
                <path d="M35.7080941,151.50049 C56.9290431,92.197343 67.5397909,55.313158 67.5403376,40.8479348 C67.5411575,19.1500998 53.2919135,1.56173117 35.7137602,1.56173117 C18.135607,1.56173117 3.88503351,19.1525037 3.88421356,40.8503386 C3.88366692,55.3155618 14.4916271,92.1989455 35.7080941,151.50049 Z" id="Oval" transform="translate(35.7123, 76.5311) rotate(3) translate(-35.7123, -76.5311)"></path>
                <path d="M76.5610107,172.303665 C94.003079,122.559148 102.726285,91.6207273 102.730629,79.4884021 C102.73714,61.2899141 91.0407543,46.5413123 76.6060188,46.5464766 C62.1712833,46.5516436 50.4643382,61.3086205 50.4578234,79.5071084 C50.4534824,91.6394337 59.1545448,122.571619 76.5610107,172.303665 Z" id="Oval" transform="translate(76.5942, 109.4251) rotate(41) translate(-76.5942, -109.4251)"></path>
                <path d="M89.8284147,200.241964 C103.465423,160.677791 110.284637,136.070637 110.286055,126.420503 C110.288182,111.945301 101.135565,100.212178 89.8431133,100.213838 C78.5506614,100.215499 69.3945961,111.951314 69.3924688,126.426516 C69.3910509,136.07665 76.2030329,160.6818 89.8284147,200.241964 Z" id="Oval" transform="translate(89.8393, 150.2279) rotate(78) translate(-89.8393, -150.2279)"></path>
            </g>
            <path d="M146.136911,0 C109.032418,9.71461772 79.2823362,32.4178711 56.8866661,68.10976 C23.2931609,121.647594 40.4228126,173.971198 37.8679949,182.053193 C35.3131771,190.135189 0,237.75721 0,251.923225 C0,261.367235 7.8369057,266.966961 23.5107171,268.722405 C21.4005753,281.235162 20.3455044,290.069091 20.3455044,295.224192 C20.3455044,300.379293 24.3276267,303.845236 32.2918713,305.622022 C26.1636038,310.792242 24.154541,314.979159 26.2646827,318.182772 C29.4298954,322.988193 42.4031325,332.665999 42.4031325,334.437798 C42.4031325,335.176373 42.7201153,348.694612 46.4305265,358.866897 C48.6541582,364.963099 50.1523875,371.403075 61.9914955,373.568051 C73.8306034,375.733027 119.89714,345.173603 138.147362,358.866897 C150.314177,367.99576 156.272422,396.414753 156.022099,444.123876 C226.014706,361.787826 253.816122,301.379143 239.426347,262.897829 C220.737945,212.921072 64.1147857,222.061938 100.607932,75.7209324 C106.76566,51.0278561 121.941986,25.7875453 146.136911,0 Z" id="Testa"></path>
        </g>
    </g>
</svg>