<?xml version="1.0" standalone="no"?>
<!DOCTYPE svg PUBLIC "-//W3C//DTD SVG 20010904//EN"
 "http://www.w3.org/TR/2001/REC-SVG-20010904/DTD/svg10.dtd">
<svg version="1.0" xmlns="http://www.w3.org/2000/svg"
 width="1500.000000pt" height="1500.000000pt" viewBox="0 0 1500.000000 1500.000000"
 preserveAspectRatio="xMidYMid meet">
<metadata>
Created by potrace 1.14, written by Peter Selinger 2001-2017
</metadata>
<g transform="translate(0.000000,1500.000000) scale(0.100000,-0.100000)"
fill="#000000" stroke="none">
<path d="M0 7500 l0 -7500 7500 0 7500 0 0 7500 0 7500 -7500 0 -7500 0 0
-7500z m7481 6573 c-137 -154 -331 -382 -407 -480 -446 -573 -734 -1114 -884
-1660 -75 -273 -142 -643 -170 -943 -14 -151 -15 -546 -1 -685 59 -579 250
-1058 590 -1485 91 -114 313 -339 431 -437 396 -327 816 -570 1710 -988 763
-356 1069 -533 1297 -749 211 -199 310 -390 369 -711 26 -141 27 -540 1 -705
-110 -704 -465 -1501 -1102 -2475 -345 -527 -800 -1130 -1366 -1809 l-114
-136 -7 327 c-23 1143 -170 1841 -450 2148 -106 116 -230 171 -408 182 -261
15 -578 -69 -1226 -325 -561 -223 -641 -243 -793 -206 -144 35 -255 111 -319
216 -18 30 -52 111 -77 180 -71 202 -105 373 -126 633 -6 84 -16 149 -25 162
-7 12 -98 98 -201 191 -104 94 -205 191 -226 216 -98 119 -85 195 60 347 42
43 74 79 72 79 -2 0 -41 13 -86 29 -187 65 -263 153 -263 308 0 90 26 325 60
553 17 106 30 199 30 205 0 7 -41 19 -98 28 -347 58 -544 189 -592 396 -51
218 103 539 745 1551 389 614 385 606 385 730 0 47 -11 191 -24 321 -71 688
-56 1161 54 1679 150 712 488 1368 1025 1990 564 655 1225 1088 2042 1339 71
22 132 40 137 40 4 1 -15 -25 -43 -56z m1405 -483 c399 -102 649 -490 620
-962 -17 -277 -122 -551 -295 -768 -227 -285 -713 -755 -1372 -1325 -274 -238
-1050 -887 -1055 -883 -1 2 26 143 61 313 299 1459 550 2420 749 2864 134 301
351 533 631 674 217 109 452 140 661 87z m919 -2359 c213 -58 403 -200 487
-365 60 -117 82 -276 59 -411 -52 -296 -298 -577 -631 -720 -316 -135 -1135
-220 -2650 -275 -145 -5 -265 -8 -267 -6 -11 11 1054 877 1392 1132 612 461
865 606 1140 658 119 22 364 15 470 -13z m-910 -1931 c233 -23 335 -48 468
-116 264 -134 428 -361 430 -594 2 -266 -181 -467 -489 -536 -115 -25 -328
-16 -449 20 -268 81 -816 408 -1710 1024 -277 190 -249 171 -244 176 3 3 503
24 934 40 185 7 954 -3 1060 -14z"/>
</g>
</svg>
